<mxfile host="Electron" agent="Mozilla/5.0 (Windows NT 10.0; Win64; x64) AppleWebKit/537.36 (KHTML, like Gecko) draw.io/28.0.6 Chrome/138.0.7204.100 Electron/37.2.3 Safari/537.36" version="28.0.6">
  <diagram name="第 1 页" id="tgjujZaIhlN2Cd1tWsDc">
    <mxGraphModel dx="946" dy="-507" grid="1" gridSize="10" guides="1" tooltips="1" connect="1" arrows="1" fold="1" page="1" pageScale="1" pageWidth="827" pageHeight="1169" math="0" shadow="0">
      <root>
        <mxCell id="0" />
        <mxCell id="1" parent="0" />
        <mxCell id="te2GSwerVJk1n2z9Qt4x-1" value="" style="rounded=0;whiteSpace=wrap;html=1;" vertex="1" parent="1">
          <mxGeometry x="200" y="1770" width="400" height="60" as="geometry" />
        </mxCell>
        <mxCell id="te2GSwerVJk1n2z9Qt4x-2" value="物理层&lt;div&gt;一台物理机，用于承担服务器部署和数据库存储工作&lt;/div&gt;" style="text;html=1;align=center;verticalAlign=middle;whiteSpace=wrap;rounded=0;" vertex="1" parent="1">
          <mxGeometry x="416" y="1785" width="160" height="30" as="geometry" />
        </mxCell>
        <mxCell id="te2GSwerVJk1n2z9Qt4x-3" value="" style="image;points=[];aspect=fixed;html=1;align=center;shadow=0;dashed=0;image=img/lib/allied_telesis/computer_and_terminals/Personal_Computer.svg;" vertex="1" parent="1">
          <mxGeometry x="276" y="1775" width="36.89" height="50" as="geometry" />
        </mxCell>
        <mxCell id="te2GSwerVJk1n2z9Qt4x-6" value="" style="rounded=0;whiteSpace=wrap;html=1;" vertex="1" parent="1">
          <mxGeometry x="200" y="1710" width="400" height="60" as="geometry" />
        </mxCell>
        <mxCell id="te2GSwerVJk1n2z9Qt4x-7" value="持久化存储&lt;div&gt;MySQL&lt;/div&gt;" style="text;html=1;align=center;verticalAlign=middle;whiteSpace=wrap;rounded=0;" vertex="1" parent="1">
          <mxGeometry x="436" y="1710" width="100" height="60" as="geometry" />
        </mxCell>
        <mxCell id="te2GSwerVJk1n2z9Qt4x-8" value="" style="points=[];aspect=fixed;html=1;align=center;shadow=0;dashed=0;fillColor=#FF6A00;strokeColor=none;shape=mxgraph.alibaba_cloud.mysql;" vertex="1" parent="1">
          <mxGeometry x="276" y="1718" width="48.300000000000004" height="45" as="geometry" />
        </mxCell>
        <mxCell id="te2GSwerVJk1n2z9Qt4x-9" value="" style="rounded=0;whiteSpace=wrap;html=1;" vertex="1" parent="1">
          <mxGeometry x="200" y="1650" width="400" height="60" as="geometry" />
        </mxCell>
        <mxCell id="te2GSwerVJk1n2z9Qt4x-10" value="" style="image;aspect=fixed;html=1;points=[];align=center;fontSize=12;image=img/lib/azure2/compute/Azure_Spring_Cloud.svg;" vertex="1" parent="1">
          <mxGeometry x="276.3" y="1656" width="48" height="48" as="geometry" />
        </mxCell>
        <mxCell id="te2GSwerVJk1n2z9Qt4x-11" value="服务器架设&lt;div&gt;SpringBoot&lt;/div&gt;" style="text;html=1;align=center;verticalAlign=middle;whiteSpace=wrap;rounded=0;" vertex="1" parent="1">
          <mxGeometry x="456" y="1650" width="80" height="60" as="geometry" />
        </mxCell>
        <mxCell id="te2GSwerVJk1n2z9Qt4x-12" value="" style="rounded=0;whiteSpace=wrap;html=1;" vertex="1" parent="1">
          <mxGeometry x="200" y="1590" width="400" height="60" as="geometry" />
        </mxCell>
        <mxCell id="te2GSwerVJk1n2z9Qt4x-13" value="服务端编写&lt;div&gt;Java&lt;/div&gt;" style="text;html=1;align=center;verticalAlign=middle;whiteSpace=wrap;rounded=0;" vertex="1" parent="1">
          <mxGeometry x="456" y="1590" width="84" height="60" as="geometry" />
        </mxCell>
        <mxCell id="te2GSwerVJk1n2z9Qt4x-15" value="" style="dashed=0;outlineConnect=0;html=1;align=center;labelPosition=center;verticalLabelPosition=bottom;verticalAlign=top;shape=mxgraph.weblogos.java" vertex="1" parent="1">
          <mxGeometry x="283.1" y="1595" width="34.4" height="55" as="geometry" />
        </mxCell>
        <mxCell id="te2GSwerVJk1n2z9Qt4x-16" value="" style="rounded=0;whiteSpace=wrap;html=1;" vertex="1" parent="1">
          <mxGeometry x="200" y="1530" width="400" height="60" as="geometry" />
        </mxCell>
        <mxCell id="te2GSwerVJk1n2z9Qt4x-18" value="&lt;span style=&quot;font-size: 72px;&quot;&gt;&amp;lt;/&amp;gt;&lt;/span&gt;" style="text;html=1;align=center;verticalAlign=middle;whiteSpace=wrap;rounded=0;" vertex="1" parent="1">
          <mxGeometry x="210.3" y="1530" width="180" height="60" as="geometry" />
        </mxCell>
        <mxCell id="te2GSwerVJk1n2z9Qt4x-19" value="客户端-服务端传输&lt;div&gt;AJAX + JSON&lt;/div&gt;" style="text;html=1;align=center;verticalAlign=middle;whiteSpace=wrap;rounded=0;" vertex="1" parent="1">
          <mxGeometry x="436" y="1540" width="124" height="55" as="geometry" />
        </mxCell>
        <mxCell id="te2GSwerVJk1n2z9Qt4x-21" value="" style="rounded=0;whiteSpace=wrap;html=1;" vertex="1" parent="1">
          <mxGeometry x="200" y="1470" width="400" height="60" as="geometry" />
        </mxCell>
        <mxCell id="te2GSwerVJk1n2z9Qt4x-22" value="" style="outlineConnect=0;dashed=0;verticalLabelPosition=bottom;verticalAlign=top;align=center;html=1;shape=mxgraph.aws3.android;fillColor=#205E00;gradientColor=none;" vertex="1" parent="1">
          <mxGeometry x="283.1" y="1475" width="46.5" height="50" as="geometry" />
        </mxCell>
        <mxCell id="te2GSwerVJk1n2z9Qt4x-23" value="前端行为控制与请求发送&lt;div&gt;jQuery&lt;/div&gt;" style="text;html=1;align=center;verticalAlign=middle;whiteSpace=wrap;rounded=0;" vertex="1" parent="1">
          <mxGeometry x="420" y="1485" width="164" height="30" as="geometry" />
        </mxCell>
        <mxCell id="te2GSwerVJk1n2z9Qt4x-24" value="" style="rounded=0;whiteSpace=wrap;html=1;" vertex="1" parent="1">
          <mxGeometry x="200" y="1410" width="400" height="60" as="geometry" />
        </mxCell>
        <mxCell id="te2GSwerVJk1n2z9Qt4x-25" value="Dark" style="html=1;shadow=0;dashed=0;shape=mxgraph.bootstrap.rrect;rSize=5;strokeColor=none;strokeWidth=1;fillColor=#343A40;fontColor=#FFFFFF;whiteSpace=wrap;align=left;verticalAlign=middle;spacingLeft=0;fontStyle=1;fontSize=14;spacing=5;" vertex="1" parent="1">
          <mxGeometry x="290" y="1430" width="40" height="20" as="geometry" />
        </mxCell>
        <mxCell id="te2GSwerVJk1n2z9Qt4x-26" value="前端样式&lt;div&gt;Bootstrap&lt;/div&gt;" style="text;html=1;align=center;verticalAlign=middle;whiteSpace=wrap;rounded=0;" vertex="1" parent="1">
          <mxGeometry x="428" y="1425" width="140" height="30" as="geometry" />
        </mxCell>
      </root>
    </mxGraphModel>
  </diagram>
</mxfile>
